# xmcd
#
# Track frame offsets: 
#        150
#        21400
#        43039
#        61974
#        83181
#        105040
#        130062
#        149609
#        166562
#        192186
#        213373
#        235122
#
# Disc length: 3468 seconds
#
# Revision: 0
# Processed by: cddbd v1.5.2PL0 Copyright (c) Steve Scherf et al.
# Submitted via: ExactAudioCopy v1.0b3
#
DISCID=980d8a0c
DTITLE=Various Artist - Noi Buon Chau Pha
DYEAR=1989
DGENRE=
TTITLE0=Phuong Mai - Noi buon Chau Pha
TTITLE1=Huong Lan - Niem dau di vang
TTITLE2=Giang Thu - Chuyen tinh khong di vang
TTITLE3=Phuong Hong Ngoc - Mon qua ky niem
TTITLE4=Bang Chau - Chuyen tinh khong doan ket
TTITLE5=Huong Lan - Anh hoi anh cu ve
TTITLE6=Phuong Hong Ngoc - Bon mau ao
TTITLE7=Phuong Mai - Mot lan dang do
TTITLE8=Huong Lan, Bang Chau - Ru em tron giac ngu
TTITLE9=Huong Lan - Nguoi quen ke nho
TTITLE10=Giang Thu - Em la tat ca (Thao thuc vi em)
TTITLE11=Phuong Mai - Pho dem
EXTD=
EXTT0=
EXTT1=
EXTT2=
EXTT3=
EXTT4=
EXTT5=
EXTT6=
EXTT7=
EXTT8=
EXTT9=
EXTT10=
EXTT11=
PLAYORDER=
